<?xml version="1.0" encoding="utf-8" ?>
<svg baseProfile="full" height="1460" version="1.1" width="826.4999999999999" xmlns="http://www.w3.org/2000/svg" xmlns:ev="http://www.w3.org/2001/xml-events" xmlns:xlink="http://www.w3.org/1999/xlink"><defs><style type="text/css"><![CDATA[@import url('https://rawcdn.githack.com/tonsky/FiraCode/07666484a9d92ec6ea916b94f776fc2410a87a11/distr/fira_code.css');]]></style></defs><rect fill="#282c34" height="1460" width="826.4999999999999" x="0" y="0" /><g style="font-weight:300;font-size:14.15px;font-family:FiraCode NF, Fira Code, Cousine, Courier New, monospace;"><text fill="#abb2bf" x="5.0" y="15">#########################</text><text fill="#abb2bf" x="5.0" xml:space="preserve" y="30">#      Meterpreter      #</text><text fill="#abb2bf" x="5.0" y="45">#########################</text><text fill="#abb2bf" x="5.0" y="60">none</text><text fill="#abb2bf" style="font-weight: bold;text-decoration: underline;" x="5.0" y="75">heading</text><text fill="#abb2bf" x="65.89999999999999" y="75" /><text fill="#4cd1e0" style="font-weight: bold;" x="5.0" y="90">[$]</text><text fill="#abb2bf" x="31.099999999999998" xml:space="preserve" y="90"> debug</text><text fill="#42b3c2" style="font-weight: bold;" x="5.0" y="105">[*]</text><text fill="#abb2bf" x="31.099999999999998" xml:space="preserve" y="105"> info</text><text fill="#8cc265" style="font-weight: bold;" x="5.0" y="120">[+]</text><text fill="#abb2bf" x="31.099999999999998" xml:space="preserve" y="120"> success</text><text fill="#d18f52" style="font-weight: bold;" x="5.0" y="135">[/]</text><text fill="#abb2bf" x="31.099999999999998" xml:space="preserve" y="135"> warning</text><text fill="#e05561" style="font-weight: bold;" x="5.0" y="150">[-]</text><text fill="#abb2bf" x="31.099999999999998" xml:space="preserve" y="150"> error</text><text fill="#ff616e" style="font-weight: bold;" x="5.0" y="165">[!]</text><text fill="#abb2bf" x="31.099999999999998" xml:space="preserve" y="165"> critical</text><text fill="#abb2bf" x="5.0" y="180">#########################</text><text fill="#abb2bf" x="5.0" xml:space="preserve" y="195">#          FH           #</text><text fill="#abb2bf" x="5.0" y="210">#########################</text><text fill="#abb2bf" x="5.0" y="225">none</text><text fill="#abb2bf" style="font-weight: bold;text-decoration: underline;" x="5.0" y="240">heading</text><text fill="#abb2bf" x="65.89999999999999" y="240" /><text fill="#abb2bf" x="5.0" y="255">[</text><text fill="#4cd1e0" style="font-weight: bold;" x="13.7" xml:space="preserve" y="255">$  Deb</text><text fill="#abb2bf" x="65.89999999999999" xml:space="preserve" y="255">] debug</text><text fill="#abb2bf" x="5.0" y="270">[</text><text fill="#42b3c2" x="13.7" xml:space="preserve" y="270">* Info</text><text fill="#abb2bf" x="65.89999999999999" xml:space="preserve" y="270">] info</text><text fill="#abb2bf" x="5.0" y="285">[</text><text fill="#8cc265" x="13.7" xml:space="preserve" y="285">+   Ok</text><text fill="#abb2bf" x="65.89999999999999" xml:space="preserve" y="285">] success</text><text fill="#abb2bf" x="5.0" y="300">[</text><text fill="#d18f52" x="13.7" xml:space="preserve" y="300">/ Warn</text><text fill="#abb2bf" x="65.89999999999999" xml:space="preserve" y="300">] warning</text><text fill="#abb2bf" x="5.0" y="315">[</text><text fill="#e05561" x="13.7" xml:space="preserve" y="315">-  Err</text><text fill="#abb2bf" x="65.89999999999999" xml:space="preserve" y="315">] error</text><text fill="#abb2bf" x="5.0" y="330">[</text><text fill="#ff616e" style="font-weight: bold;" x="13.7" xml:space="preserve" y="330">! Crit</text><text fill="#abb2bf" x="65.89999999999999" xml:space="preserve" y="330">] critical</text><text fill="#abb2bf" x="5.0" y="345">#########################</text><text fill="#abb2bf" x="5.0" xml:space="preserve" y="360">#         FHNF          #</text><text fill="#abb2bf" x="5.0" y="375">#########################</text><text fill="#abb2bf" x="5.0" y="390">none</text><text fill="#abb2bf" style="font-weight: bold;text-decoration: underline;" x="5.0" y="405">heading</text><text fill="#abb2bf" x="65.89999999999999" y="405" /><text fill="#abb2bf" x="5.0" y="420">[</text><text fill="#4cd1e0" style="font-weight: bold;" x="13.7" xml:space="preserve" y="420">  Deb</text><text fill="#abb2bf" x="74.6" xml:space="preserve" y="420">] debug</text><text fill="#abb2bf" x="5.0" y="435">[</text><text fill="#42b3c2" x="13.7" xml:space="preserve" y="435"> Info</text><text fill="#abb2bf" x="74.6" xml:space="preserve" y="435">] info</text><text fill="#abb2bf" x="5.0" y="450">[</text><text fill="#8cc265" x="13.7" xml:space="preserve" y="450">   Ok</text><text fill="#abb2bf" x="74.6" xml:space="preserve" y="450">] success</text><text fill="#abb2bf" x="5.0" y="465">[</text><text fill="#d18f52" x="13.7" xml:space="preserve" y="465"> Warn</text><text fill="#abb2bf" x="74.6" xml:space="preserve" y="465">] warning</text><text fill="#abb2bf" x="5.0" y="480">[</text><text fill="#e05561" x="13.7" xml:space="preserve" y="480">  Err</text><text fill="#abb2bf" x="74.6" xml:space="preserve" y="480">] error</text><text fill="#abb2bf" x="5.0" y="495">[</text><text fill="#ff616e" style="font-weight: bold;" x="13.7" xml:space="preserve" y="495"> Crit</text><text fill="#abb2bf" x="74.6" xml:space="preserve" y="495">] critical</text><text fill="#abb2bf" x="5.0" y="510">#########################</text><text fill="#abb2bf" x="5.0" xml:space="preserve" y="525">#        Python         #</text><text fill="#abb2bf" x="5.0" y="540">#########################</text><text fill="#abb2bf" x="5.0" y="555">none</text><text fill="#abb2bf" x="5.0" y="570">HEADER:heading</text><text fill="#abb2bf" x="5.0" y="585">DEBUG:debug</text><text fill="#abb2bf" x="5.0" y="600">INFO:info</text><text fill="#abb2bf" x="5.0" y="615">SUCCESS:success</text><text fill="#abb2bf" x="5.0" y="630">WARNING:warning</text><text fill="#abb2bf" x="5.0" y="645">ERROR:error</text><text fill="#abb2bf" x="5.0" y="660">CRITICAL:critical</text><text fill="#abb2bf" x="5.0" y="675">#########################</text><text fill="#abb2bf" x="5.0" xml:space="preserve" y="690">#       ColorLog        #</text><text fill="#abb2bf" x="5.0" y="705">#########################</text><text fill="#abb2bf" x="5.0" y="720">none</text><text fill="#abb2bf" style="font-weight: bold;text-decoration: underline;" x="5.0" y="735">heading</text><text fill="#abb2bf" x="65.89999999999999" y="735" /><text fill="#42b3c2" x="5.0" xml:space="preserve" y="750">DEBUG    </text><text fill="#4aa5f0" x="83.3" y="750">debug</text><text fill="#abb2bf" x="126.79999999999998" y="750" /><text fill="#8cc265" x="5.0" xml:space="preserve" y="765">INFO     </text><text fill="#4aa5f0" x="83.3" y="765">info</text><text fill="#abb2bf" x="118.1" y="765" /><text fill="#8cc265" x="5.0" xml:space="preserve" y="780">SUCCESS  </text><text fill="#4aa5f0" x="83.3" y="780">success</text><text fill="#abb2bf" x="144.2" y="780" /><text fill="#d18f52" x="5.0" xml:space="preserve" y="795">WARNING  </text><text fill="#4aa5f0" x="83.3" y="795">warning</text><text fill="#abb2bf" x="144.2" y="795" /><text fill="#e05561" x="5.0" xml:space="preserve" y="810">ERROR    </text><text fill="#4aa5f0" x="83.3" y="810">error</text><text fill="#abb2bf" x="126.79999999999998" y="810" /><text fill="#e05561" x="5.0" xml:space="preserve" y="825">CRITICAL </text><text fill="#4aa5f0" x="83.3" y="825">critical</text><text fill="#abb2bf" x="152.89999999999998" y="825" /><text fill="#abb2bf" x="5.0" y="840">#########################</text><text fill="#abb2bf" x="5.0" xml:space="preserve" y="855">#       PrintTags       #</text><text fill="#abb2bf" x="5.0" y="870">#########################</text><text fill="#abb2bf" x="5.0" y="885">none</text><text fill="#abb2bf" style="font-weight: bold;text-decoration: underline;" x="5.0" y="900">heading</text><text fill="#abb2bf" x="65.89999999999999" y="900" /><text fill="#42b3c2" x="5.0" xml:space="preserve" y="915">[debug] debug</text><text fill="#abb2bf" x="118.1" y="915" /><text fill="#42b3c2" x="5.0" xml:space="preserve" y="930">[info] info</text><text fill="#abb2bf" x="100.69999999999999" y="930" /><text fill="#8cc265" x="5.0" xml:space="preserve" y="945">[success] success</text><text fill="#abb2bf" x="152.89999999999998" y="945" /><text fill="#c162de" x="5.0" xml:space="preserve" y="960">[warn] warning</text><text fill="#abb2bf" x="126.79999999999998" y="960" /><text fill="#e05561" x="5.0" xml:space="preserve" y="975">[error] error</text><text fill="#abb2bf" x="118.1" y="975" /><text fill="#e05561" x="5.0" xml:space="preserve" y="990">[critical] critical</text><text fill="#abb2bf" x="170.29999999999998" y="990" /><text fill="#abb2bf" x="5.0" y="1005">#########################</text><text fill="#abb2bf" x="5.0" xml:space="preserve" y="1020">#          Xa           #</text><text fill="#abb2bf" x="5.0" y="1035">#########################</text><text fill="#abb2bf" x="5.0" y="1050">none</text><rect fill="#3f4451" height="15" width="60.89999999999999" x="5.0" y="1052.5" /><text fill="#f0a45d" style="font-weight: bold;" x="5.0" xml:space="preserve" y="1065"> TITLE </text><text fill="#abb2bf" x="65.89999999999999" xml:space="preserve" y="1065"> heading</text><rect fill="#4cd1e0" height="15" width="60.89999999999999" x="5.0" y="1067.5" /><text fill="#3f4451" style="font-weight: bold;" x="5.0" xml:space="preserve" y="1080"> DEBUG </text><text fill="#abb2bf" x="65.89999999999999" xml:space="preserve" y="1080"> debug</text><rect fill="#42b3c2" height="15" width="52.199999999999996" x="5.0" y="1082.5" /><text fill="#3f4451" style="font-weight: bold;" x="5.0" xml:space="preserve" y="1095"> INFO </text><text fill="#abb2bf" x="57.199999999999996" xml:space="preserve" y="1095"> info</text><rect fill="#8cc265" height="15" width="78.3" x="5.0" y="1097.5" /><text fill="#3f4451" style="font-weight: bold;" x="5.0" xml:space="preserve" y="1110"> SUCCESS </text><text fill="#abb2bf" x="83.3" xml:space="preserve" y="1110"> success</text><rect fill="#d18f52" height="15" width="78.3" x="5.0" y="1112.5" /><text fill="#3f4451" style="font-weight: bold;" x="5.0" xml:space="preserve" y="1125"> WARNING </text><text fill="#abb2bf" x="83.3" xml:space="preserve" y="1125"> warning</text><rect fill="#e05561" height="15" width="60.89999999999999" x="5.0" y="1127.5" /><text fill="#3f4451" style="font-weight: bold;" x="5.0" xml:space="preserve" y="1140"> ERROR </text><text fill="#abb2bf" x="65.89999999999999" xml:space="preserve" y="1140"> error</text><rect fill="#ff616e" height="15" width="87.0" x="5.0" y="1142.5" /><text fill="#3f4451" style="font-weight: bold;" x="5.0" xml:space="preserve" y="1155"> CRITICAL </text><text fill="#abb2bf" x="92.0" xml:space="preserve" y="1155"> critical</text><text fill="#abb2bf" x="5.0" y="1170">#########################</text><text fill="#abb2bf" x="5.0" xml:space="preserve" y="1185">#         Lamu          #</text><text fill="#abb2bf" x="5.0" y="1200">#########################</text><text fill="#abb2bf" x="5.0" y="1215">none</text><text fill="#abb2bf" style="font-weight: bold;text-decoration: underline;" x="5.0" y="1230">heading</text><text fill="#abb2bf" x="65.89999999999999" y="1230" /><text fill="#4cd1e0" x="5.0" xml:space="preserve" y="1245">   debug</text><text fill="#abb2bf" x="74.6" xml:space="preserve" y="1245">  : :  debug</text><text fill="#42b3c2" x="5.0" xml:space="preserve" y="1260">    info</text><text fill="#abb2bf" x="74.6" xml:space="preserve" y="1260">  : :  info</text><text fill="#8cc265" x="5.0" xml:space="preserve" y="1275"> success</text><text fill="#abb2bf" x="74.6" xml:space="preserve" y="1275">  : :  success</text><text fill="#d18f52" x="5.0" xml:space="preserve" y="1290"> warning</text><text fill="#abb2bf" x="74.6" xml:space="preserve" y="1290">  : :  warning</text><text fill="#e05561" x="5.0" xml:space="preserve" y="1305">   error</text><text fill="#abb2bf" x="74.6" xml:space="preserve" y="1305">  : :  error</text><text fill="#ff616e" x="5.0" y="1320">critical</text><text fill="#abb2bf" x="74.6" xml:space="preserve" y="1320">  : :  critical</text><text fill="#abb2bf" x="5.0" y="1335">#########################</text><text fill="#abb2bf" x="5.0" xml:space="preserve" y="1350">#        Custom         #</text><text fill="#abb2bf" x="5.0" y="1365">#########################</text><text fill="#abb2bf" x="5.0" y="1380">none</text><text fill="#abb2bf" x="5.0" xml:space="preserve" y="1395">a letter a</text><text fill="#abb2bf" x="5.0" xml:space="preserve" y="1410">b letter b</text><text fill="#abb2bf" x="5.0" xml:space="preserve" y="1425">🐱 cat</text><text fill="#abb2bf" x="5.0" xml:space="preserve" y="1440">🐲 dragon</text></g></svg>